<svg width="12" height="16" viewBox="0 0 12 16" fill="none" xmlns="http://www.w3.org/2000/svg">
<path d="M5.99975 0C2.75204 0 0.109526 2.64251 0.109526 5.89056C0.109526 6.73777 0.282931 7.54667 0.624667 8.29499C2.09739 11.5176 4.921 14.9201 5.75152 15.886C5.81374 15.9582 5.90445 15.9998 5.99992 15.9998C6.09538 15.9998 6.1861 15.9582 6.24832 15.886C7.0785 14.9203 9.90212 11.518 11.3753 8.29499C11.7172 7.54667 11.8905 6.73777 11.8905 5.89056C11.8901 2.64251 9.24763 0 5.99975 0ZM5.99975 8.95013C4.31269 8.95013 2.94002 7.57746 2.94002 5.89039C2.94002 4.20317 4.31269 2.83049 5.99975 2.83049C7.68682 2.83049 9.05949 4.20317 9.05949 5.89039C9.05965 7.57746 7.68698 8.95013 5.99975 8.95013Z" fill="#029F59"/>
</svg>
